<svg width="115" height="53" viewBox="0 0 115 53" fill="none" xmlns="http://www.w3.org/2000/svg">
<path d="M27.4 14.56H14.2V22H24.84V32.56H14.2V52H0.52V2.32H28.2L27.4 14.56ZM43.7013 52H30.5013V14.08H43.7013V52ZM31.5413 11.04C30.4213 10.08 29.8613 8.53333 29.8613 6.4C29.8613 4.26666 30.4213 2.69333 31.5413 1.68C32.6613 0.666666 34.5013 0.16 37.0613 0.16C39.6213 0.16 41.4613 0.666666 42.5813 1.68C43.7013 2.69333 44.2613 4.26666 44.2613 6.4C44.2613 8.48 43.7013 10.0267 42.5813 11.04C41.4613 12 39.6213 12.48 37.0613 12.48C34.5013 12.48 32.6613 12 31.5413 11.04ZM81.655 13.68L73.495 52H54.615L46.375 13.68H60.455L63.895 38.24H64.935L68.615 13.68H81.655ZM98.4875 24.16C97.1008 24.16 96.1942 24.64 95.7675 25.6C95.3408 26.5067 95.1275 27.92 95.1275 29.84H102.088V27.92C102.088 25.4133 100.888 24.16 98.4875 24.16ZM98.8075 12.72C104.301 12.72 108.221 14.0533 110.568 16.72C112.968 19.3333 114.168 23.0933 114.168 28C114.168 28.64 113.981 31.52 113.608 36.64H95.3675C95.3675 40.64 97.2075 42.64 100.888 42.64C102.648 42.64 106.088 42.0267 111.208 40.8L112.328 50.72C107.848 52.1067 103.368 52.8 98.8875 52.8C93.3942 52.8 89.1808 51.0133 86.2475 47.44C83.3142 43.8133 81.8475 38.9067 81.8475 32.72C81.8475 19.3867 87.5008 12.72 98.8075 12.72Z" fill="#01894B"/>
</svg>
